# xmcd
#
# Track frame offsets: 
#        150
#        19836
#        34624
#        49911
#        65399
#        82124
#        102824
#        118274
#        134524
#        159894
#
# Disc length: 2288 seconds
#
# Revision: 0
# Processed by: cddbd v1.5.2PL0 Copyright (c) Steve Scherf et al.
# Submitted via: ExactAudioCopy v1.3
#
DISCID=8108ee0a
DTITLE=Lonnie Brooks - Hot Shot
DYEAR=1983
DGENRE=Chicago Blues
TTITLE0=Don't Take Advantage Of Me
TTITLE1=Wrong Number
TTITLE2=Messed Up Again
TTITLE3=Family Rules
TTITLE4=Back Trail
TTITLE5=I Want All My Money Back
TTITLE6=Mr. Hot Shot
TTITLE7=Brand New Mojo Hand
TTITLE8=Mr. Somebody
TTITLE9=One More Shot
EXTD=
EXTT0=
EXTT1=
EXTT2=
EXTT3=
EXTT4=
EXTT5=
EXTT6=
EXTT7=
EXTT8=
EXTT9=
PLAYORDER=
